TITLE "Fuzzy Warbles 4"
PERFORMER "Andy Partridge"
REM GENRE "Rock"
REM DATE "2003"
REM DISCID 0A0D2B13
FILE "Fuzzy Warbles 4.flac" WAVE
  TRACK 01 AUDIO
    TITLE "Tunes"
    ISRC GBFHR0300057
    INDEX 01 00:00:00
  TRACK 02 AUDIO
    TITLE "Bumpercars"
    ISRC GBFHR0300058
    INDEX 01 00:24:32
  TRACK 03 AUDIO
    TITLE "The Art Song (Something Good With Your Life)"
    ISRC GBFHR0300059
    INDEX 01 04:23:32
  TRACK 04 AUDIO
    TITLE "I'm Playing My Fano"
    ISRC GBFHR0300060
    INDEX 01 07:15:15
  TRACK 05 AUDIO
    TITLE "Zonked Right Out On Life"
    ISRC GBFHR0300061
    INDEX 01 08:26:62
  TRACK 06 AUDIO
    TITLE "All I Dream Of Is A Friend"
    ISRC GBFHR0300062
    INDEX 00 13:41:25
    INDEX 01 13:44:00
  TRACK 07 AUDIO
    TITLE "Peck The Ground Like A Chicken"
    ISRC GBFHR0300063
    INDEX 01 17:27:65
  TRACK 08 AUDIO
    TITLE "That's Really Super Supergirl"
    ISRC GBFHR0300064
    INDEX 01 18:54:20
  TRACK 09 AUDIO
    TITLE "Brainiac's Daughter"
    ISRC GBFHR0300065
    INDEX 00 22:34:10
    INDEX 01 22:35:10
  TRACK 10 AUDIO
    TITLE "Blue Beret"
    ISRC GBFHR0300066
    INDEX 00 24:20:67
    INDEX 01 24:23:20
  TRACK 11 AUDIO
    TITLE "Gangway, Electric Guitar Is Coming Through"
    ISRC GBFHR0300067
    INDEX 01 27:30:37
  TRACK 12 AUDIO
    TITLE "Mechanical Planet"
    ISRC GBFHR0300068
    INDEX 01 29:20:70
  TRACK 13 AUDIO
    TITLE "Helicopter"
    ISRC GBFHR0300069
    INDEX 01 33:15:05
  TRACK 14 AUDIO
    TITLE "The Ugly Underneath"
    ISRC GBFHR0300070
    INDEX 00 37:06:12
    INDEX 01 37:06:70
  TRACK 15 AUDIO
    TITLE "Omgo"
    ISRC GBFHR0300071
    INDEX 00 40:19:35
    INDEX 01 40:20:45
  TRACK 16 AUDIO
    TITLE "Where Is Your Heart?"
    ISRC GBFHR0300072
    INDEX 01 42:23:67
  TRACK 17 AUDIO
    TITLE "Hey, It's Alan Burston!"
    ISRC GBFHR0300073
    INDEX 01 45:21:42
  TRACK 18 AUDIO
    TITLE "Season Cycle"
    ISRC GBFHR0300074
    INDEX 00 45:42:47
    INDEX 01 45:44:12
  TRACK 19 AUDIO
    TITLE "Countdown To Christmas Partytime"
    ISRC GBFHR0300075
    INDEX 01 50:35:15
